# xmcd
#
# Track frame offsets: 
#        150
#        17197
#        34152
#        52263
#        69525
#        87719
#        104808
#        119526
#        136276
#        151784
#        176721
#
# Disc length: 2603 seconds
#
# Revision: 2
# Processed by: cddbd v1.5.2PL0 Copyright (c) Steve Scherf et al.
# Submitted via: ExactAudioCopy v0.90b4
#
DISCID=a30a290b
DTITLE=Sarah Buxton - Sarah Buxton
DYEAR=2010
DGENRE=Country
TTITLE0=American Daughters
TTITLE1=Outside My Window
TTITLE2=Radio Love [feat. Jedd Hughes]
TTITLE3=For Real
TTITLE4=Wings [feat. Jedd Hughes]
TTITLE5=Love Like Heaven
TTITLE6=Space
TTITLE7=Innocence
TTITLE8=That Kind Of Day
TTITLE9=Stupid Boy
TTITLE10=Big Blue Sky  [duet with Jedd Hughes]
EXTD=2010
EXTT0=
EXTT1=
EXTT2=Featuring Jedd Hughes
EXTT3=
EXTT4=Featuring Jedd Hughes
EXTT5=
EXTT6=
EXTT7=
EXTT8=
EXTT9=
EXTT10=Duet with Jedd Hughes
PLAYORDER=
